#tb 0: 1/1000
0,          0,          0,        0,      216, 3219af4ef540636b0f67a989e9966059
0,         33,         33,        0,      216, 1a3655c2cfd2ee332bc89da5b3faf778
0,         66,         66,        0,      216, d638d5b361a6d81440e26993ed86c97d
0,        100,        100,        0,      216, d9bc2e7cffd66db4ba9dcbce99448d4d
0,        133,        133,        0,      216, 399f962e0a0573915bc4da4a9f1effcf
0,        166,        166,        0,      216, 69d917e19b903e4f07f848e9e557bbe7
0,        200,        200,        0,      216, d6311488a58acf6eb0cc45bc4fe3c2da
0,        233,        233,        0,      216, 0ce360a84d5755307f98d65c83f190e1
0,        266,        266,        0,      216, 2554828e6dbf94424ccac30fb153872e
0,        300,        300,        0,      216, 598a55f9735e85b8d45105dd6be7f97b
